<svg xmlns="http://www.w3.org/2000/svg" viewBox="0 0 512 512">
  <circle cx="256" cy="256" r="256" fill="#009639"/>
  <path d="M256 256c35.3 0 64-28.7 64-64s-28.7-64-64-64-64 28.7-64 64 28.7 64 64 64zm0 32c-42.7 0-128 21.3-128 64v32h256v-32c0-42.7-85.3-64-128-64z" fill="#ffffff"/>
  <path d="M416 339c0-10.7-3.3-20.7-9-29-18.3-26.7-64.3-33-88.3-33v34h-6v-34c-11.3 0-21.7 1-30.7 3 24 16.3 42 39.7 42 68v42h92v-51zM105 310c-5.7 8.3-9 18.3-9 29v51h92v-42c0-28.3 18-51.7 42-68-9-2-19.3-3-30.7-3h-6v34h-6v-34c-24 0-70 6.3-88.3 33z" fill="#ffffff" opacity="0.8"/>
</svg>
